<svg width="120" height="121" viewBox="0 0 120 121" fill="none" xmlns="http://www.w3.org/2000/svg">
<path d="M20.9058 95.2567L12.286 23.2811C12.0009 20.9004 13.8599 18.8054 16.2576 18.8054H44.8016C47.0027 18.8054 49.1065 19.7123 50.6177 21.3124L55.5661 26.5519C56.3218 27.352 57.3737 27.8054 58.4742 27.8054H90.25C94.6683 27.8054 98.25 31.3871 98.25 35.8054V98.3054C98.25 100.515 96.4591 102.305 94.25 102.305H28.8491C24.7988 102.305 21.3875 99.2783 20.9058 95.2567Z" fill="#DBE5DE"/>
<path d="M24.6064 90.8054H20.75L21.374 95.7977C21.8745 99.8011 25.2777 102.805 29.3123 102.805H100.958C103.084 102.805 104.839 101.142 104.952 99.0189L108.025 41.5189C108.147 39.2291 106.324 37.3054 104.031 37.3054H36.8936C34.8287 37.3054 33.1031 38.8772 32.911 40.9332L28.589 87.1776C28.3969 89.2336 26.6713 90.8054 24.6064 90.8054Z" fill="#EAF3EC"/>
<circle cx="82.75" cy="62.3054" r="4" fill="#BFC9C2"/>
<circle cx="58.75" cy="62.3054" r="4" fill="#BFC9C2"/>
<path fill-rule="evenodd" clip-rule="evenodd" d="M76.4532 81.2802C75.1511 82.9796 73.0976 84.3054 70 84.3054C66.9458 84.3054 64.615 83.0212 63.042 81.4187C61.5165 79.8645 60.6199 77.9225 60.5044 76.4205L63.4956 76.1904C63.5467 76.855 64.0501 78.1631 65.183 79.3172C66.2683 80.423 67.8541 81.3054 70 81.3054C72.1024 81.3054 73.2988 80.4646 74.0718 79.4557C74.9034 78.3702 75.2973 77.0129 75.5384 75.9681L78.4616 76.6427C78.2027 77.7646 77.6966 79.6573 76.4532 81.2802Z" fill="#BFC9C2"/>
</svg>
