<svg width="100" height="101" viewBox="0 0 100 101" fill="none" xmlns="http://www.w3.org/2000/svg">
<path d="M17.2809 78.34L10.3278 20.2811C10.0426 17.9004 11.9017 15.8054 14.2994 15.8054H36.76C38.9611 15.8054 41.0649 16.7123 42.5761 18.3124L46.1079 22.0519C46.8635 22.852 47.9154 23.3054 49.0159 23.3054H73.8751C78.2934 23.3054 81.8751 26.8871 81.8751 31.3054V81.3888C81.8751 83.5979 80.0842 85.3888 77.8751 85.3888H25.2242C21.1738 85.3888 17.7626 82.3616 17.2809 78.34Z" fill="#DBE5DE"/>
<path d="M19.8981 75.8055H17.2917L17.6658 78.7978C18.1662 82.8012 21.5694 85.8055 25.604 85.8055H83.4998C85.626 85.8055 87.3806 84.1421 87.4941 82.0189L89.9833 35.4356C90.1056 33.1459 88.282 31.2222 85.989 31.2222H31.352C29.2871 31.2222 27.5615 32.794 27.3694 34.85L23.8808 72.1777C23.6886 74.2337 21.9631 75.8055 19.8981 75.8055Z" fill="#EAF3EC"/>
<circle cx="68.9583" cy="52.0555" r="3.33333" fill="#BFC9C2"/>
<ellipse cx="48.9583" cy="52.0555" rx="3.33333" ry="3.33333" fill="#BFC9C2"/>
<path fill-rule="evenodd" clip-rule="evenodd" d="M63.75 67.472H53.75V64.1387H63.75V67.472Z" fill="#BFC9C2"/>
</svg>
