<svg width="150" height="150" viewBox="0 0 150 150" fill="none" xmlns="http://www.w3.org/2000/svg">
<rect width="150" height="150" rx="75" fill="#FBFDFA"/>
<rect width="150" height="150" rx="75" fill="#006B54" fill-opacity="0.05"/>
<path d="M35.9058 109.451L27.286 37.4756C27.0009 35.0949 28.8599 33 31.2576 33H59.8016C62.0027 33 64.1065 33.9068 65.6177 35.507L70.5661 40.7465C71.3218 41.5466 72.3737 42 73.4742 42H105.25C109.668 42 113.25 45.5817 113.25 50V112.5C113.25 114.709 111.459 116.5 109.25 116.5H43.8491C39.7988 116.5 36.3875 113.473 35.9058 109.451Z" fill="#006C4D"/>
<path d="M39.6064 105H35.75L36.374 109.992C36.8745 113.996 40.2777 117 44.3123 117H115.958C118.084 117 119.839 115.337 119.952 113.213L123.025 55.7134C123.147 53.4237 121.324 51.5 119.031 51.5H51.8936C49.8287 51.5 48.1031 53.0718 47.911 55.1278L43.589 101.372C43.3969 103.428 41.6713 105 39.6064 105Z" fill="#00A578"/>
<circle cx="97.75" cy="76.5" r="4" fill="#006C4D"/>
<circle cx="73.75" cy="76.5" r="4" fill="#006C4D"/>
<path fill-rule="evenodd" clip-rule="evenodd" d="M81.1928 94.8151C80.305 94.0161 78.9759 93.9567 78.0204 94.6734L74.6516 97.2L72.8516 94.8L76.2204 92.2734C78.3226 90.6967 81.2465 90.8274 83.1997 92.5852L83.3049 92.68C84.1723 93.4606 85.4773 93.4985 86.3885 92.7695C88.3546 91.1966 91.1485 91.1966 93.1147 92.7695L95.6886 94.8287L93.8145 97.1713L91.2406 95.1121C90.37 94.4157 89.1331 94.4157 88.2626 95.1121C86.2045 96.7586 83.257 96.673 81.298 94.9098L81.1928 94.8151Z" fill="#006C4D"/>
</svg>
