<svg width="736" height="542" viewBox="0 0 736 542" fill="none" xmlns="http://www.w3.org/2000/svg">
<path d="M527 79H345L155 409H527V79Z" fill="#DDF7E8"/>
<path d="M277.71 248.5L328.638 158H364.823L315.904 248.5H277.71Z" stroke="#B3CCBE" stroke-width="2" stroke-linecap="round"/>
<path d="M410.644 155.5L432.664 113H468.924L448.866 155.5H410.644Z" stroke="#B3CCBE" stroke-width="2" stroke-linecap="round"/>
<path d="M528 193H621.62L573.135 296" stroke="#B3CCBE" stroke-width="2" stroke-linecap="round"/>
<path d="M207 243H110.823L61.248 330" stroke="#B3CCBE" stroke-width="2" stroke-linecap="round"/>
<path d="M118.372 154.802C98.4221 161.197 86.5373 175.693 72.1057 200.422C62.3432 216.003 77.6237 217.902 89.933 218.755C102.242 219.608 132.379 217.902 143.415 218.755C154.451 219.608 155.724 221.74 159.544 226.856C163.364 231.972 168.033 231.546 183.738 229.84C199.443 228.135 218.119 230.267 222.364 226.856C226.609 223.445 227.458 223.019 230.853 223.019C234.249 223.019 244.436 222.592 250.803 223.019C257.17 223.445 257.594 218.755 262.263 218.755H282.213C289.428 218.755 297.493 211.933 292.4 195.732C288.325 182.771 270.611 184.646 262.263 187.205C264.81 181.946 267.442 168.786 257.594 158.212C247.747 147.639 231.702 154.944 224.911 159.918C232.127 147.98 234.673 123.251 213.875 116.856C193.076 110.46 177.796 121.972 169.731 130.499C163.279 137.321 148.65 155.796 142.141 164.181C142.566 158.639 138.321 148.406 118.372 154.802Z" fill="#CFE9DA"/>
<path d="M568.99 285.616C558.084 289.09 551.587 296.963 543.698 310.393C538.361 318.855 546.714 319.887 553.443 320.35C560.172 320.813 576.647 319.887 582.68 320.35C588.713 320.813 589.409 321.971 591.497 324.749C593.586 327.528 596.138 327.296 604.724 326.37C613.309 325.444 623.519 326.602 625.839 324.749C628.159 322.897 628.623 322.665 630.48 322.665C632.336 322.665 637.905 322.434 641.386 322.665C644.866 322.897 645.098 320.35 647.651 320.35H658.556C662.501 320.35 666.91 316.645 664.125 307.846C661.898 300.806 652.214 301.825 647.651 303.215C649.043 300.359 650.481 293.211 645.098 287.469C639.715 281.726 630.944 285.694 627.231 288.395C631.176 281.911 632.568 268.481 621.198 265.008C609.828 261.535 601.475 267.787 597.066 272.418C593.539 276.123 585.542 286.157 581.984 290.711C582.216 287.7 579.896 282.143 568.99 285.616Z" fill="#CFE9DA"/>
<circle cx="565.5" cy="165.5" r="3.5" fill="#E86E00"/>
<circle cx="132.5" cy="255.5" r="3.5" fill="#E86E00"/>
<circle cx="569.5" cy="332.5" r="3.5" fill="#48FEC0"/>
<circle cx="114" cy="199" r="2" fill="#48FEC0"/>
<circle cx="265" cy="307" r="2" fill="#48FEC0"/>
<circle cx="628" cy="214" r="2" fill="#48FEC0"/>
<path d="M566 305H606.5" stroke="#E86E00"/>
<path d="M464 341H492" stroke="#E86E00" stroke-width="5"/>
<path d="M162 290H190" stroke="#E86E00" stroke-width="5"/>
<path d="M308.164 455.246L343.335 472.612L335.744 487.985L294.035 467.301L308.164 455.246Z" fill="#00A578"/>
<path d="M441.001 260L334.501 448.5" stroke="#00A578" stroke-width="40" stroke-linecap="square" stroke-linejoin="bevel"/>
<path d="M332 327.059L430.543 443.774C431.103 444.438 432.184 444.122 432.299 443.262L453 288" stroke="#092017" stroke-width="5" stroke-linecap="square" stroke-linejoin="bevel"/>
<path d="M442.5 366.5L445.5 344" stroke="#994600" stroke-width="5" stroke-linecap="square" stroke-linejoin="bevel"/>
<path d="M338 338L476 298" stroke="#092017" stroke-width="5" stroke-linecap="square" stroke-linejoin="bevel"/>
<path d="M439 287L473 281" stroke="#092017" stroke-width="5" stroke-linecap="square" stroke-linejoin="bevel"/>
<path d="M424 313L407 318" stroke="#E86E00" stroke-width="5" stroke-linecap="square" stroke-linejoin="bevel"/>
<path d="M344 319L317 435.5" stroke="#092017" stroke-width="5" stroke-linecap="square" stroke-linejoin="bevel"/>
<ellipse cx="429.792" cy="442.127" rx="32.9083" ry="49.766" transform="rotate(10.9894 429.792 442.127)" stroke="#092017" stroke-width="5" stroke-linecap="square" stroke-linejoin="bevel"/>
<path d="M459.927 413.5C455.894 402.742 448.635 395.09 439.278 393.273C421.437 389.809 402.726 408.872 397.487 435.853C394.226 452.647 396.952 468.55 403.778 479" stroke="#E86E00" stroke-width="5" stroke-linecap="square" stroke-linejoin="bevel"/>
<path d="M358.007 439.274C356.073 456.328 349.675 471.485 340.906 482.177C332.221 492.767 321.209 498.976 309.905 498.308C287.188 496.967 271.893 468.362 275.742 434.417C276.703 425.942 278.767 417.935 281.676 410.712C290.418 389.005 306.799 374.376 323.844 375.382C346.56 376.724 361.856 405.329 358.007 439.274Z" stroke="#092017" stroke-width="5" stroke-linecap="square" stroke-linejoin="bevel"/>
<path d="M346.268 388C351.9 395.127 355.884 404.833 357.622 416" stroke="#994600" stroke-width="5" stroke-linecap="square" stroke-linejoin="bevel"/>
<path d="M281.676 410.712C278.767 417.935 276.703 425.942 275.742 434.417C271.893 468.362 287.188 496.967 309.905 498.309C321.209 498.976 332.22 492.767 340.906 482.177" stroke="#E86E00" stroke-width="5" stroke-linecap="square" stroke-linejoin="bevel"/>
<path d="M284.677 357.457L265.493 363.565C259.432 365.495 255.999 371.888 257.739 378.007V378.007C259.497 384.192 265.891 387.823 272.104 386.164L276.032 385.115" stroke="#092017" stroke-width="5" stroke-linecap="square" stroke-linejoin="bevel"/>
<path d="M285 355.169L270.852 362.642C270.452 362.853 269.963 362.77 269.646 362.447C264.592 357.307 252.625 349.007 241 353.096" stroke="#00C28E" stroke-width="14" stroke-linecap="round" stroke-linejoin="bevel"/>
<path d="M259 361C255.748 362.371 252.415 364.657 249 369" stroke="#00C28E" stroke-width="14" stroke-linecap="round" stroke-linejoin="bevel"/>
<path d="M247 359C250.333 358.167 258.3 358.4 263.5 366" stroke="#092017" stroke-width="2" stroke-linecap="round" stroke-linejoin="bevel"/>
<path d="M450.5 250.5L335.055 313.239C334.506 313.537 334.362 314.261 334.755 314.746L413 411.5" stroke="#00C28E" stroke-width="40" stroke-linecap="round" stroke-linejoin="bevel"/>
<path d="M399.718 426.733L430.312 401L441.526 414.333L405.162 444.813L399.718 426.733Z" fill="#00C28E"/>
<path d="M359 255L450.5 250.5" stroke="#00C28E" stroke-width="40" stroke-linecap="round" stroke-linejoin="bevel"/>
<path d="M361 274.5L363.938 305.59C363.976 305.986 363.775 306.366 363.427 306.559L294 345" stroke="#00C28E" stroke-width="40" stroke-linecap="square" stroke-linejoin="bevel"/>
<path d="M267 337.5L342.5 295.5L340.5 273" stroke="#092017" stroke-width="2" stroke-linecap="round" stroke-linejoin="bevel"/>
<path d="M352 255.5V255.5C366.295 253.851 379.172 264.224 380.604 278.543L383.344 305.941C384.045 312.954 380.503 319.712 374.336 323.124L286 372" stroke="#092017" stroke-width="2" stroke-linecap="round" stroke-linejoin="bevel"/>
<path d="M380 275L420.5 272.5" stroke="#092017" stroke-width="2" stroke-linecap="round" stroke-linejoin="bevel"/>
<path fill-rule="evenodd" clip-rule="evenodd" d="M328.796 217.579C324.886 216.971 320.492 218.73 317.068 224.297C317.013 224.327 316.959 224.36 316.905 224.396L311.942 227.74C310.68 228.59 310.792 230.481 312.145 231.177L313.997 232.129C312.307 240.416 315.822 244.73 321 245C325.932 245.257 332.396 243.766 334.745 234.766C336.032 234.893 337.45 234.533 338.68 233.657C341.092 231.939 341.869 228.892 340.416 226.85C339.355 225.358 337.397 224.816 335.479 225.301C334.814 220.945 332.46 218.15 328.796 217.579Z" fill="#00C28E"/>
</svg>
