<svg width="1024" height="1024" viewBox="0 0 1024 1024" fill="none" xmlns="http://www.w3.org/2000/svg">
<g clip-path="url(#clip0_54263_1376)">
<path d="M0 368.64C0 239.604 0 175.086 25.1121 125.801C47.2013 82.448 82.448 47.2013 125.801 25.1121C175.086 0 239.604 0 368.64 0H655.36C784.396 0 848.914 0 898.199 25.1121C941.552 47.2013 976.799 82.448 998.888 125.801C1024 175.086 1024 239.604 1024 368.64V655.36C1024 784.396 1024 848.914 998.888 898.199C976.799 941.552 941.552 976.799 898.199 998.888C848.914 1024 784.396 1024 655.36 1024H368.64C239.604 1024 175.086 1024 125.801 998.888C82.448 976.799 47.2013 941.552 25.1121 898.199C0 848.914 0 784.396 0 655.36V368.64Z" fill="url(#paint0_linear_54263_1376)"/>
<g clip-path="url(#clip1_54263_1376)">
<path fill-rule="evenodd" clip-rule="evenodd" d="M355.566 825.168L372.775 786.509H390.815L345.084 889.062H327.057L347.149 844.054H313.098L293.024 889.062H275.001L320.746 786.509H338.736L321.506 825.168H355.566ZM428.345 823.53L463.386 786.509H484.913L429.47 843.946L409.048 889.062H390.815L411.214 843.956L410.364 786.509H427.884L428.345 823.53ZM506.649 786.509L459.579 889.062H521.089L529.558 870.56H486.672L497.374 847.206H540.278L548.738 828.718H505.935L516.776 804.954H559.699L568.154 786.509H506.649ZM626.446 856.664L658.349 786.542L676.729 786.509L630.097 889.062H611.699L604.259 818.408L572.081 889.024H553.677L600.295 786.509H618.726L626.446 856.664ZM733.379 790.172L655.014 889.062H675.511L692.597 868.432H724.132L721.785 889.062H739.007L749.113 790.172H733.379ZM729.692 819.906L725.892 850.34H706.092L729.692 819.906Z" fill="white"/>
</g>
<path d="M260 196C260 182.745 270.745 172 284 172H740C753.255 172 764 182.745 764 196V330H260V196Z" fill="url(#paint1_linear_54263_1376)"/>
<path d="M447 362H764V656C764 669.255 753.255 680 740 680H447V362Z" fill="url(#paint2_linear_54263_1376)"/>
<g filter="url(#filter0_d_54263_1376)">
<path fill-rule="evenodd" clip-rule="evenodd" d="M793.466 595.246C819.678 595.246 840.926 573.997 840.926 547.786C840.926 521.574 819.678 500.326 793.466 500.326C767.255 500.326 746.006 521.574 746.006 547.786C746.006 573.997 767.255 595.246 793.466 595.246ZM793.466 611.996C828.929 611.996 857.677 583.248 857.677 547.786C857.677 512.323 828.929 483.575 793.466 483.575C758.004 483.575 729.256 512.323 729.256 547.786C729.256 583.248 758.004 611.996 793.466 611.996Z" fill="#BDFFDF"/>
<path fill-rule="evenodd" clip-rule="evenodd" d="M609.211 595.247C635.422 595.247 656.671 573.999 656.671 547.787C656.671 521.576 635.422 500.327 609.211 500.327C582.999 500.327 561.751 521.576 561.751 547.787C561.751 573.999 582.999 595.247 609.211 595.247ZM609.211 611.998C644.673 611.998 673.421 583.25 673.421 547.787C673.421 512.325 644.673 483.576 609.211 483.576C573.748 483.576 545 512.325 545 547.787C545 583.25 573.748 611.998 609.211 611.998Z" fill="#BDFFDF"/>
<path fill-rule="evenodd" clip-rule="evenodd" d="M762.193 435.504L783.983 427.684L778.101 412L753.757 420.778C746.657 423.44 742.981 431.285 745.479 438.445L785.558 553.34L801.374 547.822L762.193 435.504Z" fill="#BDFFDF"/>
<path fill-rule="evenodd" clip-rule="evenodd" d="M668.722 446.909L698.636 546.584L682.546 551.241L652.632 451.567L668.722 446.909Z" fill="#BDFFDF"/>
<path fill-rule="evenodd" clip-rule="evenodd" d="M665.966 484.476C665.258 484.723 664.608 485.11 664.054 485.614L606.145 548.969C602.694 552.106 604.382 557.841 608.983 558.608H693.588C695.559 558.936 697.555 558.187 698.823 556.642L761.3 465.465C764.879 461.102 760.465 454.789 755.139 456.654L665.966 484.476ZM723.1 485.614L673.642 499.536L638.425 541.023H689.97L723.1 485.614Z" fill="#BDFFDF"/>
<path fill-rule="evenodd" clip-rule="evenodd" d="M679.594 454.11L646.11 463.817L640.835 445.372L674.319 435.665L679.594 454.11Z" fill="#BDFFDF"/>
</g>
<path d="M260 362H415V680H284C270.745 680 260 669.255 260 656V362Z" fill="#48FEC0"/>
</g>
<defs>
<filter id="filter0_d_54263_1376" x="491" y="368" width="420.677" height="307.998" filterUnits="userSpaceOnUse" color-interpolation-filters="sRGB">
<feFlood flood-opacity="0" result="BackgroundImageFix"/>
<feColorMatrix in="SourceAlpha" type="matrix" values="0 0 0 0 0 0 0 0 0 0 0 0 0 0 0 0 0 0 127 0" result="hardAlpha"/>
<feOffset dy="10"/>
<feGaussianBlur stdDeviation="27"/>
<feComposite in2="hardAlpha" operator="out"/>
<feColorMatrix type="matrix" values="0 0 0 0 0 0 0 0 0 0 0 0 0 0 0 0 0 0 0.45 0"/>
<feBlend mode="normal" in2="BackgroundImageFix" result="effect1_dropShadow_54263_1376"/>
<feBlend mode="normal" in="SourceGraphic" in2="effect1_dropShadow_54263_1376" result="shape"/>
</filter>
<linearGradient id="paint0_linear_54263_1376" x1="512" y1="1024" x2="512" y2="0" gradientUnits="userSpaceOnUse">
<stop stop-color="#141516"/>
<stop offset="1" stop-color="#25282B"/>
</linearGradient>
<linearGradient id="paint1_linear_54263_1376" x1="926.509" y1="251.452" x2="260.214" y2="239.52" gradientUnits="userSpaceOnUse">
<stop stop-color="#00835C"/>
<stop offset="1" stop-color="#10E8AD"/>
</linearGradient>
<linearGradient id="paint2_linear_54263_1376" x1="744.028" y1="680" x2="441.772" y2="531.652" gradientUnits="userSpaceOnUse">
<stop stop-color="#004A34"/>
<stop offset="1" stop-color="#00C28E"/>
</linearGradient>
<clipPath id="clip0_54263_1376">
<rect width="1024" height="1024" fill="white"/>
</clipPath>
<clipPath id="clip1_54263_1376">
<rect width="474" height="158" fill="white" transform="translate(275 755)"/>
</clipPath>
</defs>
</svg>
