<svg width="70" height="44" viewBox="0 0 70 44" fill="none" xmlns="http://www.w3.org/2000/svg">
<path d="M30.3591 23.1118L27.4712 20.2189C26.8017 19.4353 26.4529 18.4279 26.4948 17.3983C26.5366 16.3686 26.9661 15.3928 27.6971 14.6662C28.4281 13.9395 29.4067 13.5157 30.437 13.4796C31.4673 13.4434 32.4732 13.7976 33.2534 14.4712L36.1604 17.3259L45.1627 8.31486L45.5077 7.97L42.6837 5.14727L42.6134 5.07702C40.7589 3.22149 38.5069 1.81136 36.0273 0.953123C33.5478 0.0948845 30.9056 -0.189033 28.3002 0.122809C25.6949 0.43465 23.1944 1.3341 20.9877 2.75324C18.781 4.17238 16.9257 6.07412 15.5619 8.31486L12.3227 5.07702C11.0806 3.83297 9.39497 3.13306 7.63663 3.13126C5.87828 3.12946 4.19124 3.82593 2.94663 5.06744C1.70202 6.30896 1.0018 7.99382 1 9.75138C0.998206 11.5089 1.69498 13.1952 2.93705 14.4393L9.10254 20.5957L18.1048 29.5747L20.9991 32.4613L21.3441 32.1165L30.2888 23.1757L30.3591 23.1118Z" fill="#43B3A5"/>
<path d="M60.963 23.4184L67.1221 29.5747C68.3366 30.8209 69.0112 32.4951 68.9999 34.2348C68.9885 35.9745 68.292 37.6397 67.0613 38.8699C65.8306 40.1 64.1646 40.7962 62.4242 40.8075C60.6837 40.8189 59.0088 40.1446 57.7621 38.9306L54.5228 35.6928C53.1566 37.9317 51.3 39.8315 49.0928 41.2492C46.8855 42.6668 44.3852 43.5654 41.7802 43.8771C39.1751 44.1888 36.5333 43.9056 34.0536 43.0488C31.574 42.192 29.3212 40.7839 27.4649 38.9306L27.401 38.8668L24.577 36.0376L24.922 35.6928L33.9115 26.6818L36.7994 29.5747C37.567 30.3454 38.6094 30.7797 39.6974 30.7821C40.7853 30.7845 41.8297 30.3548 42.6007 29.5875C43.3717 28.8203 43.8062 27.7783 43.8086 26.6908C43.811 25.6033 43.3811 24.5594 42.6135 23.7888L39.7192 20.9022L39.7895 20.8319L48.7342 11.8912L49.0793 11.5399L51.9735 14.4329L60.963 23.4184Z" fill="#43B3A5"/>
</svg>
