<svg width="94" height="94" viewBox="0 0 94 94" fill="none" xmlns="http://www.w3.org/2000/svg">
<path d="M8.80821 56.9582L64.1515 25.0655C64.8859 24.6423 65.7807 25.2673 65.6362 26.1024L57.2026 74.8294C57.0968 75.4409 56.4654 75.8093 55.881 75.6006L43.6523 71.2332C43.2599 71.0931 42.8217 71.2109 42.5526 71.529L33.7634 81.9162C33.1617 82.6274 32 82.2019 32 81.2703V68.2967C32 68.1032 32.0561 67.9139 32.1616 67.7517L45 48.0002L25.4543 64.6141C25.1744 64.852 24.7866 64.9173 24.4442 64.7841L8.94506 58.7567C8.16254 58.4523 8.08075 57.3774 8.80821 56.9582Z" fill="#006C4D"/>
<path d="M13 10L15.7009 17.2991L23 20L15.7009 22.7009L13 30L10.2991 22.7009L3 20L10.2991 17.2991L13 10Z" fill="#006C4D"/>
<path d="M81 54L83.7009 61.2991L91 64L83.7009 66.7009L81 74L78.2991 66.7009L71 64L78.2991 61.2991L81 54Z" fill="#006C4D"/>
</svg>
