<svg width="55" height="50" viewBox="0 0 55 50" fill="none" xmlns="http://www.w3.org/2000/svg">
<path d="M34.9528 2L35.8188 1.5L34.9528 -2.38419e-07L34.0867 1.5L34.9528 2ZM53.0642 33.37V34.37H54.7963L53.9302 32.8701L53.0642 33.37ZM16.8412 33.37L15.9752 32.8701L15.1092 34.37H16.8412V33.37ZM34.0867 2.5L52.1982 33.87L53.9302 32.8701L35.8188 1.5L34.0867 2.5ZM25.6874 20.0481L35.8188 2.5L34.0867 1.5L23.9553 19.0481L25.6874 20.0481ZM16.685 18.2754C19.4757 18.2754 22.0818 19.0529 24.3019 20.4026L25.3408 18.6936C22.8165 17.159 19.8524 16.2754 16.685 16.2754V18.2754ZM2 32.9604C2 24.8501 8.57469 18.2754 16.685 18.2754V16.2754C7.47011 16.2754 0 23.7455 0 32.9604H2ZM16.685 47.6454C8.57469 47.6454 2 41.0707 2 32.9604H0C0 42.1753 7.47011 49.6454 16.685 49.6454V47.6454ZM31.3651 33.3444C31.1618 41.277 24.6669 47.6454 16.685 47.6454V49.6454C25.7543 49.6454 33.1334 42.4097 33.3645 33.3957L31.3651 33.3444ZM53.0642 32.37H32.3648V34.37H53.0642V32.37ZM32.3648 32.37H16.8412V34.37H32.3648V32.37ZM17.7073 33.87L25.6874 20.0481L23.9553 19.0481L15.9752 32.8701L17.7073 33.87ZM24.3019 20.4026C28.5417 22.9801 31.3701 27.6404 31.3701 32.9604H33.3701C33.3701 26.9134 30.1525 21.6187 25.3408 18.6936L24.3019 20.4026ZM31.3701 32.9604C31.3701 33.0888 31.3684 33.2168 31.3651 33.3445L33.3645 33.3956C33.3682 33.2511 33.3701 33.106 33.3701 32.9604H31.3701Z" fill="#AAAAAA"/>
</svg>
